X Lossless Decoder version 20210101 (153.1)

XLD extraction logfile from 2021-08-19 02:35:45 +0900

Andy Partridge / My Failed Song Writing Career, Vol.1

Used drive : PIONEER BD-RW   BDR-X12U (revision 1.03)
Media type : Pressed CD

Ripper mode             : XLD Secure Ripper
Disable audio cache     : OK for the drive with a cache less than 1375KiB
Make use of C2 pointers : NO
Read offset correction  : 667
Max retry count         : 20
Gap status              : Analyzed, Appended

TOC of the extracted CD
     Track |   Start  |  Length  | Start sector | End sector 
    ---------------------------------------------------------
        1  | 00:00:00 | 03:16:71 |         0    |    14770   
        2  | 03:16:71 | 04:15:71 |     14771    |    33966   
        3  | 07:32:67 | 04:20:03 |     33967    |    53469   
        4  | 11:52:70 | 04:41:05 |     53470    |    74549   

AccurateRip Summary
    Disc not found in AccurateRip DB.

All Tracks
    Filename : /Volumes/RavelStorage1TB/tmp/Andy Partridge - My Failed Song Writing Career, Vol.1.flac
    CRC32 hash               : 1388718D
    CRC32 hash (skip zero)   : 9C44024E
    Statistics
        Read error                           : 0
        Jitter error (maybe fixed)           : 0
        Retry sector count                   : 0
        Damaged sector count                 : 0

Track 01
    Pre-gap length : 00:02:00

    CRC32 hash               : 395F1B1B
    CRC32 hash (skip zero)   : FD796AE8
    AccurateRip v1 signature : 90A1E6AB
    AccurateRip v2 signature : 2AE3092B
        ->Track not present in AccurateRip database.
    Statistics
        Read error                           : 0
        Jitter error (maybe fixed)           : 0
        Retry sector count                   : 0
        Damaged sector count                 : 0

Track 02

    CRC32 hash               : B7BB1AA6
    CRC32 hash (skip zero)   : 70966D2F
    AccurateRip v1 signature : 8D4F6778
    AccurateRip v2 signature : E8C458BB
        ->Track not present in AccurateRip database.
    Statistics
        Read error                           : 0
        Jitter error (maybe fixed)           : 0
        Retry sector count                   : 0
        Damaged sector count                 : 0

Track 03

    CRC32 hash               : 288D94FE
    CRC32 hash (skip zero)   : 3208541B
    AccurateRip v1 signature : 67C7EDCD
    AccurateRip v2 signature : 8F1907A9
        ->Track not present in AccurateRip database.
    Statistics
        Read error                           : 0
        Jitter error (maybe fixed)           : 0
        Retry sector count                   : 0
        Damaged sector count                 : 0

Track 04

    CRC32 hash               : 46EAD493
    CRC32 hash (skip zero)   : 952D8489
    AccurateRip v1 signature : 8EDAFD08
    AccurateRip v2 signature : 95A1B2D1
        ->Track not present in AccurateRip database.
    Statistics
        Read error                           : 0
        Jitter error (maybe fixed)           : 0
        Retry sector count                   : 0
        Damaged sector count                 : 0

No errors occurred

End of status report
